<?xml version="1.0" encoding="utf-8"?>
<!-- Generator: Adobe Illustrator 17.0.1, SVG Export Plug-In . SVG Version: 6.00 Build 0)  -->
<!DOCTYPE svg PUBLIC "-//W3C//DTD SVG 1.1//EN" "http://www.w3.org/Graphics/SVG/1.1/DTD/svg11.dtd">
<svg version="1.1" id="Capa_1" xmlns="http://www.w3.org/2000/svg" xmlns:xlink="http://www.w3.org/1999/xlink" x="0px" y="0px"
	 width="546px" height="560px" viewBox="198.5 0 546 560" enable-background="new 198.5 0 546 560" xml:space="preserve">
<g>
	<path d="M469.134,194.109v138.198c0,31.115,2.709,51.185,8.129,60.217c6.625,10.642,20.573,15.958,41.851,15.958
		c22.883,0,40.947-5.015,54.195-15.055c13.248-10.034,22.478-25.69,27.699-46.969c3.012-13.046,9.833-19.57,20.475-19.57
		c10.637,0,19.316,4.77,26.044,14.301c6.723,9.536,10.086,21.933,10.086,37.185c0,24.891-9.235,51.485-27.7,79.787
		c-5.824,9.032-10.942,15.205-15.355,18.517c-4.417,3.313-9.737,4.968-15.957,4.968l-66.841-8.129H321.301
		c-13.85,0-23.588-1.604-29.205-4.817c-8.233-4.615-12.344-11.54-12.344-20.774c0-5.617,1.354-9.786,4.064-12.495
		c2.71-2.71,9.282-6.572,19.721-11.592c11.441-5.42,18.766-13.046,21.979-22.883c2.606-8.228,3.914-32.216,3.914-71.959
		c0-18.465-0.503-45.06-1.505-79.788c-1.007-33.317-1.609-58.411-1.807-75.271c0-16.056-1.256-27.046-3.763-32.969
		c-2.512-5.918-7.781-10.185-15.807-12.796c-13.248-4.615-21.678-8.327-25.291-11.14c-6.426-5.015-9.635-10.736-9.635-17.162
		c0-14.649,12.142-25.79,36.431-33.42c20.671-6.624,48.371-9.936,83.1-9.936c38.938,0,68.045,2.009,87.314,6.021
		c24.887,5.419,37.335,16.259,37.335,32.517c0,6.624-1.656,11.545-4.969,14.753c-3.312,3.213-11.394,7.527-24.236,12.947
		c-7.631,3.415-12.449,9.235-14.453,17.463C470.136,148.447,469.134,166.409,469.134,194.109z"/>
</g>
</svg>
