<?xml version="1.0" ?><!DOCTYPE svg  PUBLIC '-//W3C//DTD SVG 1.1//EN'  'http://www.w3.org/Graphics/SVG/1.1/DTD/svg11.dtd'><svg enable-background="new -0.7 -0.8 24 23" height="23px" version="1.1" viewBox="-0.7 -0.8 24 23" width="24px" xml:space="preserve" xmlns="http://www.w3.org/2000/svg" xmlns:xlink="http://www.w3.org/1999/xlink"><defs/><path clip-rule="evenodd" d="M21.5,22h-4c-0.6,0-1-0.4-1-1V1c0-0.6,0.4-1,1-1h4c0.6,0,1,0.4,1,1  v20C22.5,21.6,22.1,22,21.5,22z M11.6,21.9c0,0-9.9-8.7-11-9.5s-0.3-2.3-0.3-2.3S10,1.2,11.7,0.3c1.6-0.9,1.9,0.9,1.9,0.9v19.6  C13.6,23.1,11.6,21.9,11.6,21.9z" fill="#0D0D0D" fill-rule="evenodd"/></svg>