<?xml version="1.0" encoding="utf-8"?>
<!-- Generator: Adobe Illustrator 17.0.1, SVG Export Plug-In . SVG Version: 6.00 Build 0)  -->
<!DOCTYPE svg PUBLIC "-//W3C//DTD SVG 1.1//EN" "http://www.w3.org/Graphics/SVG/1.1/DTD/svg11.dtd">
<svg version="1.1" id="Layer_1" xmlns="http://www.w3.org/2000/svg" xmlns:xlink="http://www.w3.org/1999/xlink" x="0px" y="0px"
	 width="292px" height="300px" viewBox="0 0 292 300" enable-background="new 0 0 292 300" xml:space="preserve">
<path fill="#636B6F" d="M290.906,25.592c0-9.935-5.845-19.087-13.988-22.873c-8.112-3.821-17.765-1.797-23.972,5.22l-35.694,40.143
	c-17.055,19.279-44.842,19.255-61.897-0.024L119.797,7.891c-6.207-7.017-15.597-9.142-23.71-5.321
	c-8.204,3.855-12.843,13.16-12.781,23.094L84,93.801c0,22.374,0,40.425,0,40.425v86.589c-15-6.155-34.425-6.162-53.421,3.608
	C2.331,238.95-5.941,265.41,4.932,282.185c10.872,16.775,40.42,24.038,68.667,9.511C93.939,281.235,104.105,266,103.951,250H104
	V104.377c16,0.303,31.032,4.062,43.594,8.049c2.561,0.815,4.977,1.598,7.286,2.495c11.948,4.677,19.795,11.017,22.664,18.409
	l0.851,2.173c0.527,1.365,3.811,2.374,7.691,2.37c3.88,0.004,7.165-1.011,7.693-2.384l0.846-2.199
	c2.88-7.388,10.749-13.771,22.709-18.444c2.308-0.905,4.761-1.61,7.322-2.425c11.946-3.797,26.344-7.39,41.344-7.981v95.672
	c-10-6.155-32.27-6.162-51.266,3.608c-28.248,14.528-35.442,40.987-24.569,57.762c10.872,16.774,41.154,24.331,69.401,9.804
	C279.882,260.839,292,246.139,292,229.934l0,0V92.824c0,0,0,0.002,0-0.056L290.906,25.592z"/>
</svg>
