<?xml version="1.0" encoding="utf-8"?>
<!-- Generator: Adobe Illustrator 17.0.1, SVG Export Plug-In . SVG Version: 6.00 Build 0)  -->
<!DOCTYPE svg PUBLIC "-//W3C//DTD SVG 1.1//EN" "http://www.w3.org/Graphics/SVG/1.1/DTD/svg11.dtd">
<svg version="1.1" id="Capa_1" xmlns="http://www.w3.org/2000/svg" xmlns:xlink="http://www.w3.org/1999/xlink" x="0px" y="0px"
	 width="557.5px" height="560px" viewBox="0 0 557.5 560" enable-background="new 0 0 557.5 560" xml:space="preserve">
<path d="M269.75,23.064c-111.609,0-224.046,14.393-224.046,158.114S194.536,536.936,269.75,536.936
	c74.665,0,224.046-212.036,224.046-355.758S381.359,23.064,269.75,23.064z M351.729,256.607c-6.972,10.837-10.665,6.197-8.568,0
	c5.524-16.351,2.368-74.657-43.756-81.926l-0.046,176.274c0.455,21.581-18.128,44.495-46.536,54.83
	c-33.444,12.172-67.742,2.308-76.606-22.04c-8.861-24.342,11.068-53.95,44.515-66.122c18.669-6.787,37.596-6.708,52.222-1.082V101
	h26.452C299.405,145.112,401.46,179.245,351.729,256.607z"/>
</svg>
