<?xml version="1.0" encoding="utf-8"?>
<!-- Generator: Adobe Illustrator 17.0.1, SVG Export Plug-In . SVG Version: 6.00 Build 0)  -->
<!DOCTYPE svg PUBLIC "-//W3C//DTD SVG 1.1//EN" "http://www.w3.org/Graphics/SVG/1.1/DTD/svg11.dtd">
<svg version="1.1" id="Capa_1" xmlns="http://www.w3.org/2000/svg" xmlns:xlink="http://www.w3.org/1999/xlink" x="0px" y="0px"
	 width="546px" height="560px" viewBox="198.5 0 546 560" enable-background="new 198.5 0 546 560" xml:space="preserve">
<g>
	<path d="M431.725,473.215l-40.345,0.301c-28.302,0.399-48.978,1.002-62.024,1.807c-11.643,1.002-19.975,1.505-24.99,1.505
		c-12.246,0-21.979-3.114-29.205-9.333c-7.029-6.22-10.538-13.647-10.538-22.28c0-5.617,1.303-10.035,3.914-13.248
		c2.606-3.208,8.929-8.228,18.968-15.054c5.819-4.014,9.833-10.284,12.043-18.818c2.207-8.529,4.615-26.844,7.226-54.948
		c3.811-43.756,5.721-97.65,5.721-161.682c0-23.485-1.557-39.089-4.667-46.819c-3.114-7.725-10.387-14.099-21.829-19.119
		c-13.248-5.617-19.872-13.85-19.872-24.689c0-8.831,3.961-16.057,11.893-21.678c7.927-5.617,18.112-8.43,30.561-8.43
		c6.821,0,15.553,0.301,26.194,0.903c17.66,0.805,36.732,1.205,57.206,1.205c15.054,0,44.659-0.602,88.819-1.807
		c13.851-0.4,26.393-0.602,37.636-0.602c26.693,0,48.221,2.159,64.583,6.473c16.357,4.319,30.561,11.592,42.604,21.829
		c19.669,16.664,29.507,38.944,29.507,66.841c0,13.85-2.912,27.352-8.731,40.496c-5.824,13.149-13.652,23.635-23.485,31.463
		c-7.028,5.622-10.538,10.74-10.538,15.355c0,5.02,4.216,9.235,12.646,12.646c16.456,6.624,31.411,17.764,44.861,33.42
		c13.85,16.259,20.774,36.634,20.774,61.121c0,28.903-10.538,55.301-31.613,79.185c-27.902,31.516-69.151,47.271-123.746,47.271
		c-7.429,0-25.696-0.503-54.798-1.505C454.005,474.015,437.746,473.417,431.725,473.215z M452.5,146.538v62.023
		c0,9.837,1.251,16.762,3.764,20.775c2.507,4.018,6.873,6.021,13.097,6.021c14.852,0,25.79-4.563,32.818-13.699
		c7.023-9.131,10.538-23.433,10.538-42.905c0-18.865-3.613-33.467-10.84-43.808c-7.226-10.336-17.463-15.506-30.71-15.506
		c-7.028,0-11.893,1.957-14.603,5.871C453.854,129.225,452.5,136.301,452.5,146.538z M452.5,319.962v28.604
		c0,26.298,1.905,43.761,5.721,52.389c3.811,8.633,11.54,12.946,23.183,12.946c30.509,0,45.765-17.862,45.765-53.593
		c0-44.561-17.063-66.841-51.184-66.841c-8.835,0-14.956,1.91-18.366,5.721C454.203,303.003,452.5,309.928,452.5,319.962z"/>
</g>
</svg>
