<?xml version="1.0" encoding="utf-8"?>
<!-- Generator: Adobe Illustrator 17.0.1, SVG Export Plug-In . SVG Version: 6.00 Build 0)  -->
<!DOCTYPE svg PUBLIC "-//W3C//DTD SVG 1.1//EN" "http://www.w3.org/Graphics/SVG/1.1/DTD/svg11.dtd">
<svg version="1.1" id="Capa_1" xmlns="http://www.w3.org/2000/svg" xmlns:xlink="http://www.w3.org/1999/xlink" x="0px" y="0px"
	 width="546px" height="560px" viewBox="198.5 0 546 560" enable-background="new 198.5 0 546 560" xml:space="preserve">
<g>
	<path d="M449.446,300.693c-7.631,0-12.495,2.31-14.603,6.925c-2.107,4.619-3.161,15.355-3.161,32.216
		c0,25.493,1.604,45.365,4.817,59.615c1.002,4.018,2.507,7.127,4.516,9.333c2.004,2.211,5.819,4.921,11.441,8.13
		c12.043,6.623,18.065,15.354,18.065,26.194c0,13.247-8.384,22.633-25.141,28.151c-16.762,5.518-45.116,8.279-85.057,8.279
		c-74.269,0-111.401-14.047-111.401-42.151c0-4.817,1.101-8.68,3.312-11.592c2.207-2.907,7.226-6.973,15.054-12.194
		c8.831-5.819,14.8-12.692,17.915-20.624c3.11-7.927,5.269-21.627,6.474-41.099c1.002-14.249,1.505-65.335,1.505-153.252
		c0-27.897-1.407-46.866-4.215-56.905c-2.813-10.035-8.835-17.359-18.065-21.979c-8.835-4.215-14.753-8.077-17.764-11.591
		c-3.011-3.51-4.516-8.078-4.516-13.7c0-7.423,2.86-13.897,8.581-19.42c5.72-5.518,13.699-9.583,23.936-12.194
		c8.628-2.207,20.474-3.312,35.528-3.312c6.624,0,23.184,1.007,49.679,3.011c5.015,0.405,12.947,0.603,23.786,0.603
		c18.065,0,42.152-1.205,72.26-3.613c19.067-1.402,32.414-2.107,40.044-2.107c42.952,0,78.48,10.34,106.585,31.012
		c25.291,18.667,37.937,44.561,37.937,77.68c0,18.47-4.418,35.279-13.248,50.432c-8.835,15.158-20.978,26.547-36.432,34.173
		c-6.426,3.213-9.635,7.028-9.635,11.441c0,5.824,4.917,10.538,14.754,14.151c21.075,7.63,36.529,19.17,46.367,34.625
		c9.832,15.459,16.86,39.142,21.075,71.056c1.807,13.248,4.413,21.829,7.828,25.743c3.411,3.914,11.338,7.678,23.786,11.291
		c3.811,1.204,7.023,3.764,9.635,7.678c2.606,3.914,3.914,8.279,3.914,13.097c0,6.225-2.409,12.495-7.227,18.818
		c-4.816,6.322-11.041,11.29-18.667,14.903c-16.86,7.828-39.945,11.742-69.249,11.742c-39.142,0-67.143-10.34-84.003-31.012
		c-7.631-9.23-14.104-20.874-19.42-34.926c-5.321-14.048-11.592-35.928-18.817-65.637c-4.62-19.066-10.491-32.517-17.614-40.345
		C472.879,305.511,462.694,301.295,449.446,300.693z M431.983,147.14l-3.312,70.153c0,0.602,0,1.505,0,2.709
		c0,7.226,1.054,12.043,3.161,14.452s6.37,3.613,12.796,3.613c17.66,0,30.508-4.563,38.539-13.699
		c8.025-9.132,12.043-23.734,12.043-43.808c0-38.736-13.751-58.109-41.249-58.109c-7.828,0-13.351,1.807-16.56,5.419
		C434.189,131.483,432.383,137.91,431.983,147.14z"/>
</g>
</svg>
